<svg width="73" height="61" viewBox="0 0 73 61" fill="none" xmlns="http://www.w3.org/2000/svg">
<path d="M65.0318 39.627C64.6518 38.5358 64.0074 37.5112 63.0786 36.6512C60.5697 34.3414 56.7498 33.736 53.692 35.0526C53.6675 35.0564 53.6541 35.0467 53.6253 35.0526C50.1698 36.4219 44.7631 33.544 42.001 32.7546C40.4854 32.3215 39.1054 31.3841 37.7765 30.5515C39.8743 30.672 42.0832 31.6653 43.1099 32.1375C43.3098 32.2275 43.4832 32.1452 43.3676 32.0218C42.4254 31.0511 41.6477 30.1479 41.181 29.2957L43.8387 31.4282L44.2032 31.0775L40.7943 28.3426C40.7321 28.1055 40.7097 27.8734 40.7188 27.6422L44.5609 30.7259L44.9232 30.3751L40.8164 27.0828C40.8631 26.9339 40.9276 26.7859 41.0076 26.639L45.2609 30.0479L45.6254 29.6963L41.2922 26.2247C41.3943 26.0993 41.5032 25.9798 41.6299 25.8554L45.9854 29.3476L46.3476 28.9969L41.9899 25.5038C42.0943 25.4019 42.2165 25.2854 42.3543 25.1532L46.7099 28.6453L47.0742 28.2965L42.7189 24.8015C42.8209 24.7015 42.9389 24.5888 43.0543 24.4753L47.4098 27.9694L47.772 27.6186L43.4166 24.1256C43.5122 24.0315 43.612 23.9355 43.7144 23.8327L48.0699 27.3278L48.4321 26.9772L44.0765 23.4841C44.1943 23.3676 44.3143 23.251 44.4387 23.1334L48.7942 26.6275L49.1542 26.2768L44.7989 22.7818C44.9121 22.675 45.0232 22.5673 45.1366 22.4546L49.4921 25.9477L49.8543 25.596L45.4966 22.1077C45.6142 21.9912 45.7322 21.8746 45.8566 21.7561L50.2121 25.2492L50.5722 24.9004L46.2166 21.4073C46.3367 21.2908 46.4566 21.1752 46.5811 21.0566L50.9366 24.5508L51.2966 24.2L46.9434 20.705C47.0567 20.5992 47.1678 20.4905 47.2789 20.3808L51.6344 23.8729L51.9944 23.5223L47.6391 20.0292C47.7279 19.9449 47.8167 19.8587 47.9011 19.7764L52.2566 23.2695L52.6189 22.9178L48.2634 19.4257C48.3856 19.3071 48.5055 19.1906 48.6255 19.074L52.9811 22.5671L53.3454 22.2163L48.9901 18.7233C49.1012 18.6145 49.2144 18.5068 49.3278 18.3961L53.6833 21.8911L54.0433 21.5394L49.6879 18.0473C49.8079 17.9308 49.9279 17.8142 50.0501 17.6956L54.4057 21.1907L54.7634 20.84L50.4123 17.3411C50.5344 17.2245 50.6523 17.106 50.7768 16.9893L55.1323 20.4844L55.4924 20.1338L51.1368 16.6387C51.2524 16.531 51.3635 16.4203 51.4746 16.3116L55.8301 19.8046L56.1946 19.454L51.8368 15.9609C51.9323 15.8669 52.0279 15.7738 52.1257 15.6817L56.4811 19.1748L56.8434 18.8231L52.4878 15.331C52.5989 15.2241 52.7101 15.1144 52.8212 15.0058L57.1767 18.4989L57.5389 18.1472L53.1834 14.655C53.2834 14.558 53.3834 14.46 53.4833 14.364L57.8389 17.8581L58.201 17.5075L53.8456 14.0124C53.9655 13.8959 54.0877 13.7783 54.2078 13.6637L58.5633 17.1559L58.9234 16.8052L54.5678 13.3122C54.6834 13.2025 54.7968 13.0918 54.9057 12.9859L59.2611 16.4781L59.6234 16.1274L55.2678 12.6343C55.39 12.5138 55.5101 12.4002 55.63 12.2837L59.9855 15.7787L60.3455 15.427L55.9901 11.9369C56.1146 11.8163 56.2345 11.6978 56.3545 11.5852L60.7101 15.0782L61.0701 14.7265L56.7191 11.2343C56.8346 11.1217 56.9456 11.0139 57.0545 10.9072L61.4101 14.3993L61.7722 14.0505L57.4168 10.5564C57.5102 10.4674 57.5945 10.3851 57.6789 10.3028L62.0344 13.7959L62.3966 13.4471L58.0389 9.9501C58.1721 9.82174 58.2921 9.70523 58.401 9.59936L62.7566 13.0916L63.1188 12.7409L58.763 9.24994C58.9497 9.06772 59.0562 8.96493 59.0562 8.96493C59.0718 8.95121 59.0851 8.93947 59.1006 8.92379L63.4562 12.4178L63.8162 12.0672L59.4606 8.57415C59.5851 8.45358 59.7073 8.33806 59.8252 8.22342L64.1807 11.7175L64.543 11.3688L60.1873 7.87378C60.314 7.74937 60.434 7.63177 60.5496 7.52502L64.9051 11.0181L65.2696 10.6664L60.9141 7.17429C61.0452 7.04802 61.1541 6.94116 61.2496 6.84714L65.605 10.3393L65.9673 9.99058L61.6162 6.50036C61.714 6.39954 61.8118 6.31133 61.9141 6.22905L66.2517 9.70753L66.6161 9.3568L62.3541 5.94008C62.5228 5.84607 62.6963 5.77157 62.8696 5.71387L66.9762 9.00804L67.3407 8.65829L63.4962 5.57465C63.7584 5.54525 64.0207 5.54327 64.2941 5.57268L67.7028 8.30767L68.0652 7.95595L65.4074 5.82347C66.3898 6.14282 67.4518 6.72076 68.6074 7.43287C68.7629 7.52886 68.9208 7.41915 68.7985 7.25262C66.4541 4.07298 61.4564 3.11107 59.5097 4.99573C59.0964 5.39824 58.2053 6.25933 57.0631 7.36628C57.0631 7.36628 49.952 14.2574 44.7721 19.2787C44.5566 19.4854 44.3433 19.694 44.1366 19.8948C42.0011 21.9617 40.2856 23.624 39.6878 24.2019L34.6555 29.0811C34.6266 29.0752 34.5966 29.0605 34.5666 29.0547C34.4233 29.0263 34.1644 28.9382 33.8022 28.8019L18.4034 0L26.8433 25.1688C26.8433 25.1688 26.9166 25.4039 27.0367 25.8133C16.6423 20.9978 0.372559 11.7978 0.372559 11.7978C0.372559 11.7978 28.0022 33.0699 28.9944 33.7829C29.0356 33.9906 29.0944 34.2003 29.151 34.4099L10.0158 52.9512L10.6258 53.4409L29.6922 36.0008C31.3989 40.2226 34.8444 44.6445 31.2333 46.9014C31.2244 46.9151 31.2333 46.9288 31.2267 46.9445C27.9722 48.9604 27.2623 53.2215 29.7023 56.6068C32.2078 60.0842 37.0744 61.3283 40.5544 59.3809C42.6922 58.1839 43.7544 55.7604 44.5899 53.4292C43.8766 51.5562 43.2878 50.8822 42.3233 49.5422C41.6922 48.6666 40.91 47.9356 40.0389 47.3558C38.1501 45.7727 32.6235 33.9534 33.188 32.8504C39.9257 32.7622 48.5345 37.3819 49.5145 41.6782C49.5233 41.6782 49.5411 41.6665 49.5501 41.6625C49.7144 43.3219 50.4834 44.8951 51.83 46.1353C54.5411 48.6331 58.8011 49.166 61.9499 47.4027C62.363 47.1717 62.7519 46.9032 63.1053 46.6035C64.3898 45.5221 65.1386 44.096 65.3386 42.5403C66.0719 42.311 67.1343 42.0818 68.1409 42.2817C71.8608 43.138 72.8653 40.4381 72.9408 39.5939C73.0163 38.7945 67.6384 41.1572 65.0318 39.627ZM28.7533 30.864C28.2734 30.2008 28.4977 29.3152 29.2511 28.8921C30.0088 28.4708 31.0077 28.6678 31.4855 29.3339C31.9655 29.9999 31.7434 30.8825 30.9878 31.3058C30.2344 31.7269 29.2311 31.5301 28.7533 30.864ZM35.35 48.1199C35.5389 48.1375 35.7276 48.1512 35.9144 48.1669C37.5189 48.3922 39.1188 49.2974 40.1677 50.749C41.9166 53.1783 41.4744 56.1954 39.1854 57.4766C36.8966 58.7597 33.6088 57.8292 31.8611 55.4019C30.1133 52.9745 30.5533 49.9536 32.8422 48.6723C33.6 48.2453 34.4666 48.0865 35.35 48.1199ZM61.3452 44.9736C61.1096 45.1694 60.8562 45.3497 60.5853 45.5025C58.4565 46.6896 55.5542 46.3018 53.6809 44.5738C52.6343 43.61 52.052 42.3659 52.0387 41.0788C52.0276 39.8112 52.5721 38.6535 53.5699 37.8111C53.8033 37.6151 54.0587 37.4368 54.3299 37.286C56.4565 36.0968 59.3565 36.4867 61.2296 38.2087C62.2787 39.1746 62.8586 40.4205 62.8719 41.7077C62.8829 42.9713 62.3363 44.135 61.3452 44.9736Z" fill="#E5E5E5"/>
</svg>
